<?xml version="1.0" encoding="UTF-8"?>
<svg id="Calque_1" data-name="Calque 1" xmlns="http://www.w3.org/2000/svg" viewBox="0 0 34.17 24">
  <defs>
    <style>
      .cls-1 {
        fill: #f9322c;
        stroke-width: 0px;
      }
    </style>
  </defs>
  <path class="cls-1" d="M17.9,0h-3.9c-.4,0-.9.2-1.1.7L0,24h3.9c.4,0,.9-.2,1.1-.6L17.9,0Z"/>
  <path class="cls-1" d="M14.29,20.1l-2.16,3.9h3.9c.4,0,.9-.2,1.1-.6l1.82-3.3"/>
  <path class="cls-1" d="M23.53,9.5l-2.16,3.9h3.9c.4,0,.9-.2,1.1-.6l1.82-3.3"/>
  <path class="cls-1" d="M29.51,1.7l-2.16,3.9h3.9c.4,0,.9-.2,1.1-.6l1.82-3.3"/>
  <path class="cls-1" d="M2.15,20.1c-.72,1.3-1.43,2.6-2.15,3.9h15.41c.3,0,.6-.3.6-.6l.99-2.7c0-.3-.3-.6-.6-.6h-.1c-3.17,0-6.33,0-9.5,0-1.55,0-3.1,0-4.65,0Z"/>
  <path class="cls-1" d="M24.75,1.7h-3.89c-.4,0-.9.2-1.1.7l-9.05,16.3h3.9c.4,0,.9-.2,1.1-.6L24.75,1.7Z"/>
  <path class="cls-1" d="M21.32,1.7c-.49,1.3-.98,2.6-1.46,3.9h11.2c.2,0,.41-.3.41-.6v-2.7c0-.3-.2-.6-.41-.6h-.07c-2.16,0-4.32,0-6.49,0-1.06,0-2.12,0-3.18,0Z"/>
  <path class="cls-1" d="M17.41,9.5c-.37,1.3-.74,2.6-1.11,3.9h8.5c.16,0,.31-.3.31-.6v-2.7c0-.3-.16-.6-.31-.6h-.05c-1.64,0-3.28,0-4.93,0-.8,0-1.61,0-2.41,0Z"/>
</svg>